<svg width="132" height="55" viewBox="0 0 132 55" fill="none" xmlns="http://www.w3.org/2000/svg">
<path d="M42.4168 35.1337C46.0798 35.1337 48.2187 33.5562 48.2187 31.1232C48.2187 25.7223 39.1015 28.5832 39.1015 24.7865C39.1015 23.4497 40.2244 22.4604 42.7644 22.4604C44.2082 22.4604 45.6787 22.808 46.9086 23.6636L47.7375 22.1396C46.5611 21.3375 44.5825 20.8295 42.7644 20.8295C39.1817 20.8295 37.2032 22.5406 37.2032 24.84C37.2032 30.4013 46.3204 27.5137 46.3204 31.1766C46.3204 32.5669 45.2242 33.476 42.5505 33.476C40.572 33.476 38.6737 32.7808 37.5507 31.8985L36.6952 33.3958C37.8448 34.3851 40.0907 35.1337 42.4168 35.1337ZM58.9738 20.8295C56.6477 20.8295 54.6959 21.8455 53.5463 23.7171V20.9364H51.7282V40.1869H53.6265V32.3531C54.8029 34.1712 56.7279 35.1337 58.9738 35.1337C62.9844 35.1337 65.9789 32.2461 65.9789 27.9682C65.9789 23.7171 62.9844 20.8295 58.9738 20.8295ZM58.8402 33.4493C55.8456 33.4493 53.5997 31.2568 53.5997 27.9682C53.5997 24.7063 55.8456 22.4872 58.8402 22.4872C61.8079 22.4872 64.0806 24.7063 64.0806 27.9682C64.0806 31.2568 61.8079 33.4493 58.8402 33.4493ZM74.6899 20.8295C72.4707 20.8295 70.3853 21.5246 68.9682 22.7278L69.8238 24.1448C70.9735 23.1288 72.6846 22.4872 74.5027 22.4872C77.1229 22.4872 78.4865 23.7973 78.4865 26.2036V27.0592H74.0215C69.9842 27.0592 68.5939 28.8773 68.5939 31.0429C68.5939 33.476 70.5457 35.1337 73.7274 35.1337C76.0535 35.1337 77.7111 34.2514 78.5667 32.8076V35H80.3848V26.2838C80.3848 22.6476 78.3261 20.8295 74.6899 20.8295ZM74.0215 33.6364C71.7756 33.6364 70.4655 32.6204 70.4655 30.9895C70.4655 29.5457 71.3478 28.4762 74.0749 28.4762H78.4865V30.7756C77.7379 32.6204 76.1604 33.6364 74.0215 33.6364ZM91.4217 35.1337C93.8013 35.1337 95.8066 34.1712 96.9295 32.3531L95.5125 31.3905C94.5499 32.8076 93.0527 33.4493 91.4217 33.4493C88.347 33.4493 86.1011 31.2836 86.1011 27.9682C86.1011 24.6796 88.347 22.4872 91.4217 22.4872C93.0527 22.4872 94.5499 23.1556 95.5125 24.5726L96.9295 23.6101C95.8066 21.7653 93.8013 20.8295 91.4217 20.8295C87.224 20.8295 84.176 23.7705 84.176 27.9682C84.176 32.1659 87.224 35.1337 91.4217 35.1337ZM112.696 27.9682C112.696 23.7438 109.835 20.8295 105.878 20.8295C101.921 20.8295 99.0066 23.7973 99.0066 27.9682C99.0066 32.1392 102.001 35.1337 106.386 35.1337C108.605 35.1337 110.557 34.3316 111.814 32.8343L110.744 31.6044C109.675 32.8343 108.151 33.4493 106.439 33.4493C103.365 33.4493 101.119 31.4975 100.905 28.5564H112.669C112.669 28.3425 112.696 28.1286 112.696 27.9682ZM105.878 22.4604C108.632 22.4604 110.637 24.3855 110.878 27.1394H100.905C101.146 24.3855 103.151 22.4604 105.878 22.4604ZM126.245 20.9364L120.951 32.8878L115.657 20.9364H113.678L119.962 34.9733L119.347 36.3368C118.545 38.1015 117.689 38.6897 116.432 38.6897C115.416 38.6897 114.561 38.3154 113.866 37.6202L112.983 39.0373C113.839 39.8928 115.096 40.3206 116.406 40.3206C118.411 40.3206 119.908 39.4383 121.085 36.6844L128.116 20.9364H126.245Z" fill="white"/>
<path fill-rule="evenodd" clip-rule="evenodd" d="M17.347 22.2712H29.0059L11.6588 54.764V32.4924H0L17.347 0V22.2712Z" fill="white"/>
</svg>
