<?xml version="1.0" encoding="UTF-8" standalone="no"?>
<!DOCTYPE svg PUBLIC "-//W3C//DTD SVG 1.1//EN" "http://www.w3.org/Graphics/SVG/1.1/DTD/svg11.dtd">
<svg width="100%" height="100%" viewBox="0 0 113 42" version="1.1" xmlns="http://www.w3.org/2000/svg" xmlns:xlink="http://www.w3.org/1999/xlink" xml:space="preserve" xmlns:serif="http://www.serif.com/" style="fill-rule:evenodd;clip-rule:evenodd;stroke-linejoin:round;stroke-miterlimit:1.41421;">
    <g transform="matrix(1,0,0,1,-1505.74,-747.604)">
        <g transform="matrix(0.122827,0,0,0.122827,1370.84,653.963)">
            <g>
                <g transform="matrix(14.9904,0,0,14.9904,-19160.9,-14782.4)">
                    <path d="M1369.98,1052.05C1372.25,1052.05 1373.36,1051.03 1373.36,1049.84C1373.36,1047.23 1369.61,1048.11 1369.61,1047.43C1369.61,1047.27 1369.8,1047.12 1370.49,1047.12C1371.04,1047.12 1371.71,1047.23 1372.38,1047.6L1373.12,1045.82C1372.43,1045.46 1371.41,1045.28 1370.46,1045.28C1368.26,1045.28 1367.11,1046.28 1367.11,1047.51C1367.11,1050.13 1370.88,1049.23 1370.88,1049.9C1370.88,1050.09 1370.7,1050.21 1370.04,1050.21C1369.26,1050.21 1368.38,1050 1367.76,1049.63L1367.02,1051.41C1367.69,1051.79 1368.86,1052.05 1369.98,1052.05Z" style="fill:rgb(51,51,51);fill-rule:nonzero;"/>
                    <path d="M1378.54,1045.28C1377.72,1045.28 1377.14,1045.49 1376.74,1045.94L1376.74,1045.4L1374.17,1045.4L1374.17,1054.25L1376.88,1054.25L1376.88,1051.49C1377.27,1051.87 1377.82,1052.05 1378.54,1052.05C1380.24,1052.05 1381.69,1050.78 1381.69,1048.67C1381.69,1046.57 1380.24,1045.28 1378.54,1045.28ZM1377.89,1049.95C1377.29,1049.95 1376.83,1049.52 1376.83,1048.67C1376.83,1047.82 1377.29,1047.38 1377.89,1047.38C1378.49,1047.38 1378.95,1047.82 1378.95,1048.67C1378.95,1049.52 1378.49,1049.95 1377.89,1049.95Z" style="fill:rgb(51,51,51);fill-rule:nonzero;"/>
                    <path d="M1385.3,1045.28C1384.28,1045.28 1383.12,1045.54 1382.36,1046.02L1383.22,1047.8C1383.65,1047.48 1384.31,1047.29 1384.89,1047.29C1385.66,1047.29 1386.04,1047.55 1386.12,1048.05L1385.04,1048.05C1383,1048.05 1382.05,1048.76 1382.05,1050.02C1382.05,1051.14 1382.87,1052.05 1384.47,1052.05C1385.39,1052.05 1386.02,1051.73 1386.33,1051.07L1386.33,1051.93L1388.84,1051.93L1388.84,1048.42C1388.84,1046.25 1387.55,1045.28 1385.3,1045.28ZM1385.29,1050.43C1384.88,1050.43 1384.64,1050.2 1384.64,1049.9C1384.64,1049.54 1384.89,1049.35 1385.47,1049.35L1386.13,1049.35L1386.13,1049.81C1385.99,1050.24 1385.66,1050.43 1385.29,1050.43Z" style="fill:rgb(51,51,51);fill-rule:nonzero;"/>
                    <path d="M1393.64,1052.05C1395.23,1052.05 1396.42,1051.33 1396.85,1050.12L1394.76,1049.09C1394.49,1049.7 1394.09,1049.95 1393.63,1049.95C1393.02,1049.95 1392.52,1049.52 1392.52,1048.66C1392.52,1047.81 1393.02,1047.38 1393.63,1047.38C1394.09,1047.38 1394.49,1047.63 1394.76,1048.24L1396.85,1047.21C1396.42,1046.01 1395.23,1045.28 1393.64,1045.28C1391.38,1045.28 1389.78,1046.68 1389.78,1048.66C1389.78,1050.66 1391.38,1052.05 1393.64,1052.05Z" style="fill:rgb(51,51,51);fill-rule:nonzero;"/>
                    <path d="M1404.37,1048.66C1404.37,1046.45 1402.71,1045.28 1400.77,1045.28C1398.66,1045.28 1397.07,1046.68 1397.07,1048.66C1397.07,1050.61 1398.62,1052.05 1401.02,1052.05C1402.33,1052.05 1403.25,1051.69 1403.88,1051L1402.47,1049.58C1402.04,1049.9 1401.7,1050.06 1401.11,1050.06C1400.44,1050.06 1399.98,1049.8 1399.79,1049.29L1404.33,1049.29C1404.34,1049.1 1404.37,1048.85 1404.37,1048.66ZM1400.8,1047.12C1401.35,1047.12 1401.74,1047.44 1401.85,1047.99L1399.74,1047.99C1399.85,1047.44 1400.23,1047.12 1400.8,1047.12Z" style="fill:rgb(51,51,51);fill-rule:nonzero;"/>
                    <path d="M1409.82,1045.4L1408.44,1048.9L1407.09,1045.4L1404.32,1045.4L1407.07,1052.02C1406.92,1052.18 1406.72,1052.28 1406.4,1052.28C1406.08,1052.28 1405.71,1052.14 1405.44,1051.93L1404.55,1053.79C1404.99,1054.14 1405.81,1054.37 1406.53,1054.37C1407.92,1054.37 1408.97,1053.86 1409.68,1052.07L1412.37,1045.4L1409.82,1045.4Z" style="fill:rgb(51,51,51);fill-rule:nonzero;"/>
                </g>
                <g transform="matrix(1.24229,0,0,1.15402,-327.863,-174.687)">
                    <path d="M1235.19,932.502L1293.79,932.502L1206.6,1108.31L1206.6,987.806L1148,987.806L1235.19,812L1235.19,932.502Z" style="fill:url(#_Linear1);"/>
                </g>
            </g>
        </g>
    </g>
    <defs>
        <linearGradient id="_Linear1" x1="0" y1="0" x2="1" y2="0" gradientUnits="userSpaceOnUse" gradientTransform="matrix(-115.174,231.988,-215.503,-123.984,1276.47,845.867)"><stop offset="0" style="stop-color:rgb(255,0,220);stop-opacity:1"/><stop offset="1" style="stop-color:rgb(255,175,0);stop-opacity:1"/></linearGradient>
    </defs>
</svg>
